# xmcd CD database file
#
# Track frame offsets:
#	150
#	17601
#	33981
#
# Disc length: 686 seconds
#
# Revision: 3
# Processed by: cddbd v1.5.2PL0 Copyright (c) Steve Scherf et al.
# Submitted via: CDex 1.70beta3
#
DISCID=1702ac03
DTITLE=DEARDROPS - DEARDROPS Self Bootleg Singles
DYEAR=2010
DGENRE=Rock
TTITLE0=希望の旋律
TTITLE1=No music,No future
TTITLE2=君の元へ (第二文芸部 Cover Ver.)
EXTD=YEAR: 2010
EXTT0=
EXTT1=
EXTT2=
PLAYORDER=
